<?xml version="1.0" encoding="iso-8859-1"?>
<!-- Uploaded to: SVG Repo, www.svgrepo.com, Generator: SVG Repo Mixer Tools -->
<svg height="800px" width="800px" version="1.1" id="Layer_1" xmlns="http://www.w3.org/2000/svg" xmlns:xlink="http://www.w3.org/1999/xlink" 
	 viewBox="0 0 511.998 511.998" xml:space="preserve">
<path style="fill:#ED4850;" d="M175.987,102.126l-18.387-5.042c-9.461-2.552-15.061-12.29-12.509-21.751l0,0
	c2.552-9.461,12.29-15.061,21.751-12.509l18.34,5.029L175.987,102.126z"/>
<polygon style="fill:#E0273D;" points="170.684,63.889 161.625,98.198 176.063,102.118 185.122,67.809 "/>
<path style="fill:#5A8EE8;" d="M228.916,164.599l-14.431-38.494l-30.286-5.859l-3.427,7.812l0,0l-3.424,7.738
	c-4.312,8.814-2.638,19.384,4.188,26.433c14.028,14.49,17.721,36.105,9.299,54.43l-4.618,10.049
	c-3.267,7.11,5.306,13.758,11.378,8.825l17.125-13.912l0,0C231.619,207.893,237.406,184.647,228.916,164.599z"/>
<path style="fill:#4A80CE;" d="M228.916,164.599l-14.431-38.494l-30.286-5.859l-5.091,11.575l24.308,4.703l14.716,37.782
	c7.375,17.414,3.972,37.238-8.123,51.144l4.712-3.828C231.619,207.893,237.406,184.647,228.916,164.599z"/>
<path style="fill:#F2BA43;" d="M417.64,82.973L197.691,54.704c-5.737-0.738-11.135,2.881-12.635,8.468l-1.527,5.693l-10.166,37.89
	c-1.421,5.293,1.073,10.857,5.969,13.319l123.486,23.87l0.285,37.374h43.586l0,0h19.128l34.259-57.098h11.533
	c5.303,0,9.925-3.609,11.211-8.753l4.556-18.227C429.055,90.527,424.501,83.855,417.64,82.973z"/>
<path style="fill:#EDA21D;" d="M417.64,82.973L197.691,54.704c-5.737-0.738-11.135,2.881-12.635,8.468l-1.527,5.693l159.648,19.977
	c18.438,2.308,28.605,22.621,19.398,38.763l-4.181,7.329l-27.829,46.382h35.252l34.259-57.098h11.533
	c5.303,0,9.925-3.609,11.211-8.753l4.556-18.227C429.056,90.527,424.501,83.855,417.64,82.973z"/>
<path style="fill:#ED4850;" d="M365.819,183.482h-64.711v-39.851c0-17.869,14.486-32.355,32.355-32.355l0,0
	c17.869,0,32.355,14.486,32.355,32.355v39.851H365.819z"/>
<path style="fill:#E0273D;" d="M333.464,111.275L333.464,111.275c-3.33,0-6.541,0.505-9.564,1.438
	c13.2,4.079,22.791,16.377,22.791,30.917v39.851h19.128v-39.851C365.819,125.762,351.332,111.275,333.464,111.275z"/>
<path style="fill:#F2BA43;" d="M385.993,181.316h-27.407h0.001h-78.464c-5.859,0-10.61,4.751-10.61,10.61v48.82
	c0,5.859,4.751,10.61,10.61,10.61h89.191h0.001h16.677c6.307,0,11.42-5.113,11.42-11.42v-47.2
	C397.412,186.429,392.3,181.316,385.993,181.316z"/>
<path style="fill:#EDA21D;" d="M385.994,181.316h-27.407c6.307,0,11.42,5.113,11.42,11.42v47.2c0,6.307-5.113,11.42-11.42,11.42
	h27.407c6.307,0,11.42-5.113,11.42-11.42v-47.2C397.413,186.429,392.3,181.316,385.994,181.316z"/>
<path style="fill:#5A8EE8;" d="M336.024,232.166c-10.203-0.168-20.182,0.67-29.846,2.41c-0.041,0.007-0.082,0.009-0.123,0.017
	c-71.433,12.917-125.614,75.418-125.614,150.575c0,50.827,24.787,95.858,62.925,123.686c1.856,1.354,4.111,3.142,6.409,3.142
	h116.137c-0.015,0.01-0.029-0.01-0.043,0h3.442h0.046c0.003,0,0.007,0,0.01,0h47.779c2.378,0,4.682-0.781,6.6-2.186
	c37.336-27.329,61.83-72.257,62.714-121.861C487.961,303.734,420.241,233.549,336.024,232.166z"/>
<path style="fill:#4A80CE;" d="M336.024,232.166c-10.247-0.168-20.266,0.676-29.968,2.43
	c71.433,12.918,125.615,75.415,125.615,150.57c0,52.094-26.038,99.192-65.803,126.828h51.277c2.378,0,4.682-0.781,6.6-2.186
	c37.336-27.329,61.83-72.257,62.714-121.861C487.962,303.734,420.241,233.549,336.024,232.166z"/>
<path style="fill:#D1D3D4;" d="M299.951,431.594h67.026c15.279-10.619,25.284-28.295,25.284-48.312
	c0-32.473-26.324-58.796-58.796-58.796c-32.473,0-58.796,26.324-58.796,58.796C274.667,403.298,284.672,420.976,299.951,431.594z"/>
<g>
	<path style="fill:#5A8EE8;" d="M100.035,77.888c-0.606,0-1.222-0.065-1.839-0.2l-36.543-7.994
		c-4.621-1.011-7.547-5.576-6.537-10.197c1.011-4.62,5.58-7.545,10.197-6.537l36.543,7.994c4.621,1.011,7.547,5.576,6.537,10.197
		C107.517,75.155,103.972,77.888,100.035,77.888z"/>
	<circle style="fill:#5A8EE8;" cx="34.079" cy="54.891" r="8.565"/>
	<path style="fill:#5A8EE8;" d="M122.161,49.505c-1.93,0-3.871-0.649-5.471-1.978l-15.798-13.132
		c-3.638-3.024-4.135-8.424-1.111-12.061c3.025-3.637,8.425-4.134,12.061-1.111l15.798,13.132c3.638,3.024,4.135,8.424,1.111,12.061
		C127.058,48.452,124.619,49.505,122.161,49.505z"/>
	<circle style="fill:#5A8EE8;" cx="83.222" cy="8.565" r="8.565"/>
	<path style="fill:#5A8EE8;" d="M94.046,120.128c-3.155,0-6.191-1.751-7.684-4.77c-2.097-4.24-0.359-9.377,3.882-11.473
		l18.415-9.106c4.24-2.098,9.377-0.357,11.473,3.882c2.097,4.24,0.359,9.377-3.882,11.473l-18.415,9.106
		C96.616,119.842,95.321,120.128,94.046,120.128z"/>
	<circle style="fill:#5A8EE8;" cx="67.057" cy="124.905" r="8.565"/>
</g>
<circle style="fill:#ED4850;" cx="224.222" cy="93.136" r="8.565"/>
<circle style="fill:#E0273D;" cx="333.462" cy="146.294" r="8.565"/>
</svg>